<svg id="Layer_1" data-name="Layer 1" xmlns="http://www.w3.org/2000/svg" viewBox="0 0 1000 1000"><path d="M100,500.51c-.74-220.1,179-400.09,400.07-400.59C720.16,99.43,899.21,278.28,900,499.4c.79,220.91-177.79,400.12-399.27,400.68C279.93,900.63,100.74,722,100,500.51Zm348.84-83.64V688H538.9v-9.37c0-48.85.12-97.69-.07-146.53a50.09,50.09,0,0,1,13.51-34.86c12.81-14.21,29-18.6,47.46-14.72,18.18,3.82,27.56,16.6,31.24,33.6a158.51,158.51,0,0,1,3.31,32c.36,43.32.15,86.64.15,130v10.05h89.18c.22-2.29.52-4,.52-5.7,0-50.59.57-101.19-.37-151.76-.31-16.93-2.46-34.35-7.18-50.56-19.71-67.74-104-93.55-157.46-48.71-7.16,6-12.94,13.67-20.53,21.84V416.87ZM397.33,688.23V417.32H308.76V688.23ZM353.16,378.79c23.54-.11,41.18-11.26,48.06-30.4,7.87-21.9-1.1-46.31-20.94-57-22.45-12.05-54-6.56-68.19,12.3-11.56,15.33-12.66,32.41-4.6,49.27C316.45,371.75,333,378.86,353.16,378.79Z"/></svg>