<svg id="Layer_1" data-name="Layer 1" xmlns="http://www.w3.org/2000/svg" viewBox="0 0 1000 1000"><path d="M900,535.88c-2.08,15.14-3.63,30.38-6.34,45.41C875.71,680.82,825.26,761,747.4,824.43c-35.23,28.72-75.15,49.13-117.94,64-17.81,6.2-29.92-2.38-30-21.46-.23-33.07-.11-66.14-.06-99.2,0-29.64-2.69-58.38-26.46-81,16.28-3,31.65-5.08,46.61-8.81,41.09-10.26,77.87-28.25,102.93-64.05,18.76-26.81,27-57.68,30.63-89.81,2.52-22.53,3.18-45.1-1.1-67.61a145.31,145.31,0,0,0-33.49-69.34c-3.47-4-4.17-7.3-2.4-12.42,11.24-32.62,6.71-64.57-5.28-95.94-.73-1.92-4.13-3.68-6.48-4-13.58-1.7-26.55,1.77-38.54,7.46-20.14,9.56-39.65,20.42-59.64,30.31-3.79,1.87-9,3.27-12.85,2.29a375.46,375.46,0,0,0-186.76.08,17.25,17.25,0,0,1-12.11-2.13c-25.81-16.48-53-29.75-82.84-37.1-18.48-4.56-22.09-2-27.37,16.18-8.31,28.7-9.54,57.25.36,85.89.71,2.05-.19,5.63-1.67,7.33-33.34,38.16-41.33,83.08-36.56,131.93,2.78,28.54,9.38,55.79,22.1,81.46,17.4,35.12,46.71,57,82.42,69.93,20.33,7.36,42.1,10.78,63.25,15.85,3.77.9,7.69,1.19,12.3,1.87-4,5.31-8.62,9.76-11.07,15.2-4.76,10.54-8.22,21.67-12.37,32.49-1,2.49-2,6.16-3.88,6.88-28,10.53-56.17,16-83.8-1-12-7.38-20.89-17.88-27.94-30-11.59-19.88-27.8-34.45-49.93-41.16-7.41-2.25-15.86-2.46-23.65-1.73-8.25.79-9.42,4.32-4.56,10.83,3.06,4.11,6.6,8.43,10.92,10.92C241.13,700.67,253,720,262.58,741c5.71,12.53,10.67,25.29,21.24,35,16.66,15.28,37,21.08,58.6,22.13,18.85.93,37.81-.17,57.86-.39,0,.5.4,2.94.43,5.39.25,20.83.52,41.66.63,62.49.1,20.48-12.47,29-32,22.29-76.46-26.38-138.88-72-187.84-136.32-42.15-55.35-68.93-117.23-77.75-186.27-14.08-110.34,11-211,79-299.52,58.68-76.41,135.51-126.95,230-146.43C554.33,90.21,679,125.85,782.94,226.81c58.18,56.51,94.3,126.15,109.94,206,2.69,13.74,3.7,27.8,5.57,41.7A68.72,68.72,0,0,0,900,481.2Z"/></svg>