<svg id="Layer_1" data-name="Layer 1" xmlns="http://www.w3.org/2000/svg" viewBox="0 0 1000 1000"><path d="M782.58,218.82c-77.71-77.81-172.89-115.48-279.43-118-108.48,1.7-207,39.46-284.69,117.07s-114.78,173-118.46,282c3.46,109.36,40.3,205.07,118.52,282.79C296.21,859.85,391,899.4,500.21,899.18c114.38-.23,212.31-43,291.06-126.51C863.15,696.43,896.9,604.42,900,500.44,896.88,391.56,860,296.38,782.58,218.82ZM591.49,336.63h70.73c23.31,0,46.62.06,69.93-.08,3.44,0,4.67.77,4.6,4.45-.23,12.12-.17,24.24,0,36.36,0,3-.9,4-3.91,4q-71.13-.11-142.27,0c-2.53,0-3.39-1-3.38-3.28,0-12.8.06-25.59,0-38.39C587.12,336.28,589.3,336.63,591.49,336.63ZM510.68,584.79c-2,22.92-9.92,43.5-26.4,60C468.93,660.21,450,669,428.9,673.65c-15.39,3.42-30.89,4.07-46.54,4q-85.35-.15-170.69,0c-2.66,0-3.77-.73-3.61-3.34.05-.94,0-1.89,0-2.83V321.43c0-6.19,0-6.19,6-6.19,59.73,0,119.46-.11,179.18.07,17.69.05,35.27,1.86,51.72,9,24.07,10.47,41,27.73,48.94,53.15,5.73,18.36,7,37.11,2.66,55.77-5.54,23.74-20.66,39-44.21,45.74-1.52.43-3,.92-3.86,1.17,7.56,2,15.58,3.33,22.89,6.34,14.36,5.9,23.85,17.07,30.16,31.07C511.27,539.07,512.7,561.74,510.68,584.79Zm276.72-20c-30.06-.12-60.12-.07-90.18-.07v.08q-45.09,0-90.18,0c-1.89,0-3.6-.13-3.46,2.57.76,14.19,3.44,27.7,12.63,39.22,10.54,13.2,24.95,18.87,41,20.67,14.84,1.66,29.67.59,43.59-5.3,13.32-5.64,22.32-15.17,24.29-30.23a4.14,4.14,0,0,1,3-2.61c19.28-.16,38.56-.1,57.84-.13,2.25,0,2.93.84,2.86,3.19-.44,15.57-3.61,30.5-11.36,44-8.15,14.25-20.06,24.8-34.53,32.5-20.65,11-43,15.2-66,16.22-23.27,1-46.29-.68-68.53-8.24C585.91,669,567,656.17,552.63,637.13c-15.36-20.31-23-43.65-25.85-68.62-2.77-24.43.55-48.28,8.36-71.57A140.13,140.13,0,0,1,558,454.1,116.55,116.55,0,0,1,592.09,425c19.79-11.29,41.17-16.15,63.64-17.1,17.29-.72,34.43.24,51.23,4.85,17.26,4.73,32.75,12.52,45.89,25,17,16.18,27,36.12,33.11,58.49,5.73,21.19,6.68,42.72,5.78,64.47C791.61,563.75,790.62,564.75,787.4,564.74Z"/><path d="M392.62,516.29H345.35c-16.43,0-32.86.14-49.29-.1-4.08-.06-5.25,1-5.22,5.12.18,28.82.09,57.64.09,86.46,0,5.43,0,5.44,5.65,5.44q42.24,0,84.47,0c5.52,0,11.05-.06,16.55-.47,17-1.24,29.35-11.05,34.22-27.19,3.37-11.15,3.31-22.44,1.57-33.92C430.15,530.25,414.29,516.3,392.62,516.29Z"/><path d="M290.9,456.86c0,3,1.12,3.77,4.11,3.75,19.09-.14,38.18.05,57.28-.07,15.32-.09,30.65-.09,45.95-.85,9.26-.46,15.89-6,19.16-14.56,5.71-15,6.09-30.29,1.83-45.88-2.94-10.74-13.88-20.2-26.75-19.62-15.57.71-31.2.17-46.8.16q-25.21,0-50.44,0c-2.55,0-4.38.08-4.36,3.53Q291,420.08,290.9,456.86Z"/><path d="M719.93,502.66c-3.32-13.76-9.32-26.22-21.92-33.51-21.93-12.7-44.45-11.74-65.9,1-15.42,9.18-23.65,24.14-28.08,41.28-1.23,4.75-1.25,4.86,3.47,4.86h54.8v0c18.4,0,36.8-.08,55.2.08,3.32,0,4.42-1.09,4-4.18S720.68,505.78,719.93,502.66Z"/></svg>