<svg xmlns="http://www.w3.org/2000/svg" viewBox="0 0 120.88 300.55"><defs><style>.cls-1{isolation:isolate;}.cls-2{fill:#3f2f7c;}.cls-3{fill:#8d80b1;}.cls-4,.cls-5{fill:#f0b3ad;}.cls-5{opacity:0.47;}.cls-13,.cls-27,.cls-28,.cls-5{mix-blend-mode:multiply;}.cls-6{opacity:0.82;}.cls-7{fill:#e69585;}.cls-8{fill:#121823;opacity:0.15;}.cls-9{fill:#dbdbdb;}.cls-10,.cls-11,.cls-17,.cls-18,.cls-20,.cls-35{fill:none;}.cls-10{stroke:#b9839a;}.cls-10,.cls-11,.cls-17,.cls-20{stroke-miterlimit:10;}.cls-10,.cls-17{stroke-width:1.33px;}.cls-11{stroke:#cb849c;}.cls-11,.cls-18{stroke-linecap:round;stroke-width:0.67px;}.cls-12,.cls-13{fill:#74d3c5;}.cls-14{fill:#717991;}.cls-15{fill:#939aa7;}.cls-16{fill:#e8eced;}.cls-17,.cls-18{stroke:#d395ab;}.cls-18{stroke-linejoin:round;}.cls-19,.cls-21{fill:#9fa5b4;}.cls-20{stroke:#9fa5b4;stroke-width:0.58px;}.cls-21{opacity:0.4;}.cls-22{fill:#626c81;}.cls-23{fill:#f6f6f6;}.cls-24{fill:#595739;}.cls-25{fill:#3b6246;}.cls-26{fill:#5b806a;}.cls-27{opacity:0.5;}.cls-28{opacity:0.2;}.cls-29{fill:#ba7f6c;}.cls-30{fill:#391204;}.cls-31{fill:#fff;}.cls-32{fill:#e3e3e3;}.cls-33{fill:#dd4b43;}.cls-34{fill:#e06f69;}.cls-36{fill:#f1f1f1;}</style></defs><g class="cls-1"><g id="OBJECTS"><path class="cls-2" d="M83.88,56.93c-3.86-1-2.8-8.85-7.85-24.77C70.59,15,45.32,23.5,55.14,21.09c-.51,0-13.77,1.54-15.65,17.87-1.92,16.59-3.42,24.48-7,26.2s-8.79,9.2,3.59,15.07c5.68,2.69,15.75,3.66,25.45,2.76h0l.41,0,.42,0h0c9.69-1,19.39-3.85,24.45-7.58C97.82,67.21,87.75,57.92,83.88,56.93Z"/><path class="cls-3" d="M74.59,57.76c-7.72-9.4-7.52-21.3-9-32.75-4.69-1.66-10.48-.61-15.27.2a69.49,69.49,0,0,1,2,15.61c.13,7-.69,14.91-4.81,20.81C45.13,65.12,41.47,66.78,38,69a14.64,14.64,0,0,0-5.61,7c-.21.53-.39,1.06-.55,1.58a19.86,19.86,0,0,0,4.26,2.67c5.68,2.69,15.75,3.66,25.45,2.76h0l.41,0,.42,0h0c9.63-1,19.25-3.81,24.34-7.5A10.9,10.9,0,0,0,85,69.55C82.34,65,77.93,61.83,74.59,57.76Z"/><path class="cls-4" d="M52.36,60.26s.94,9.21-.7,10.75c0,0,3.74,4.24,10.86,3.19,0,0,5.47-1,6.81-3.18,0,0-1.62-11.06-1.76-13.43C67.57,57.59,54,55.47,52.36,60.26Z"/><path class="cls-5" d="M52.63,65.61c3.25,2,6.82,2.87,10.72,1.42a15.66,15.66,0,0,0,5-3.09c-.37-2.68-.7-5.32-.76-6.35,0,0-13.62-2.12-15.21,2.67C52.36,60.26,52.63,62.92,52.63,65.61Z"/><path class="cls-4" d="M73.39,36.62l-.06,0A15.84,15.84,0,0,0,56,23.83c-8.85.85-15.36,8.43-14.54,16.93a14.74,14.74,0,0,0,.82,3.6c1.33,6.33,5.67,19.29,19.06,20.54C61.32,64.9,77,60.87,73.39,36.62Z"/><path class="cls-4" d="M45.24,49.76c1,2.08,1,4.23-.16,4.8s-2.91-.64-4-2.71-1-4.23.16-4.8S44.19,47.69,45.24,49.76Z"/><path class="cls-4" d="M77.9,47.83c-.36,2.3-1.67,4-2.93,3.81s-2-2.22-1.63-4.52,1.67-4,2.93-3.8S78.26,45.53,77.9,47.83Z"/><path class="cls-2" d="M55.32,45.56s-2.8-2.63-8.4-.43c0,0,5.31-.82,7.27.55C54.19,45.68,55.38,46.51,55.32,45.56Z"/><path class="cls-2" d="M62.46,45.27s2.24-3.12,8.16-2c0,0-5.37.21-7,1.92C63.59,45.16,62.58,46.2,62.46,45.27Z"/><g class="cls-6"><path class="cls-2" d="M58.43,53.21s1.93,1.71,2.84-.07C61.27,53.14,60.33,55.43,58.43,53.21Z"/><path class="cls-2" d="M57.52,52.64A.85.85,0,0,0,58,54.05,1.83,1.83,0,0,1,57.52,52.64Z"/><path class="cls-2" d="M62.08,52.26a.85.85,0,0,1-.19,1.48A1.84,1.84,0,0,0,62.08,52.26Z"/></g><path class="cls-2" d="M73.88,35.2l.89-.09A16.58,16.58,0,0,0,72,26.31c-1.49-2.46-2.73-3.25-5.64-3.6-2.15-.26-4.37-1.41-6.52-.92a9.28,9.28,0,0,0-1.63.77,1.37,1.37,0,0,1-.7.22,23.15,23.15,0,0,0-6.33-.16,8.65,8.65,0,0,0-6.58,4,15.3,15.3,0,0,0-1.36,2.56c-.57,1.42-1,1.25-1.15,2.71-4.52,8.77.68,14.78.68,14.78-.09-.41,1,2.34.91,1.93,1.07,2.75,1.61,6,2,6.38.66.73,1.23-1,1.23-1-2.67-5.07-1.43-11.7,0-16.22l11.68-1.1a.55.55,0,0,0,.55-.49c.33-1.14.68-2.27,1-3.41l.14-.44.74,0c.32,1.33.63,2.66.94,4l4.49-.43c0-.92,0-1.82,0-2.72l.62.25c.26.65.5,1.29.75,1.93.07.17.32.4.47.39l1.82-.17a10.17,10.17,0,0,1,2,3.39l-.09.17s1.49,12,.87,15.92c0,0,.5.91,1.17.18s1.23-9.1,1-13.47C75.3,40,74.47,37.77,73.88,35.2Z"/><path class="cls-4" d="M15.43,57.78s-.26-2-.65-6L14.16,46s-5-12.65,1.63-1.23a.45.45,0,0,0,.59-.47c0-.62-.91-9.19-.16-9.21s1.9,8.11,2.33,8.26.36-9.38,1.35-9.14.59,9.18,1.28,9.21S23.88,36,24.75,36s-1.15,8.58-.9,10.28,1,1.8,1,1.8,1,.49,1.87-1.46,1.57-2.55,2.65-1.81a26.36,26.36,0,0,1-.93,2.77c-.21.46-2.59,6-5.7,6.85L21.7,59Z"/><path class="cls-7" d="M14.82,52.16c.37,3.75.61,5.62.61,5.62L21.7,59l.79-3.41C19.89,54.55,17.33,53.42,14.82,52.16Z"/><path class="cls-8" d="M92.17,275.34c0,3.15-14.85,5.7-33.17,5.7s-33.18-2.55-33.18-5.7,14.85-5.7,33.18-5.7S92.17,272.19,92.17,275.34Z"/><polygon class="cls-7" points="63.02 211.05 68.02 262.68 62.33 262.88 51.03 213.25 63.02 211.05"/><polygon class="cls-9" points="68.62 262.56 69.09 273.17 45 273.71 62.21 262.3 68.62 262.56"/><line class="cls-10" x1="45.08" y1="273.8" x2="69.09" y2="273.17"/><path class="cls-4" d="M55.32,70.16,43.85,73.6l-.52.23S45.43,88.49,61,85.12,78.61,69.66,78.61,69.66l-15.08-.42Z"/><path class="cls-11" d="M54.05,267.5a6.55,6.55,0,0,1,3.13,5.69"/><path class="cls-11" d="M55.79,266.07s3.57.66,3.8,3.19"/><path class="cls-11" d="M57.78,264.56s3.58.67,3.8,3.19"/><path class="cls-12" d="M45.5,73.21S49.24,86,61.68,83.79A15.74,15.74,0,0,0,75.05,70.1a15.86,15.86,0,0,1,11.2,4.51c4.55,4.7,16.8,20.21,16.8,24.88S88.12,125,88.12,125l-5.91-3.43L89.36,101,80.65,95s-2.8,25.51-9,29.86-20.22,0-20.22,0L39.28,93.43S22.17,99,15.64,95.61,11,55.79,12.84,54.86,24,57.35,24,57.35s-1.55,22.7.93,22.7S37.11,74.45,45.5,73.21Z"/><path class="cls-13" d="M71.26,95c-7.06.75-14.11,1.14-21.17,1.3a11.37,11.37,0,0,1-7.23,6.41l8.55,22.14s14,4.36,20.22,0c4.24-3,6.89-15.76,8.15-23.6A10.33,10.33,0,0,1,71.26,95Z"/><path class="cls-14" d="M46.13,93.12l29.55-4.36s-3.11,21.15,6.22,34.84c0,0,20.52,50.08,4.27,84.68-6.74,14.36-13.92,22.63-13.92,22.63l-11.5-7.46,8.08-26.91L62.3,165.28l3.42,51.33-14.93,4S36,164.23,34.31,154.08c-2.49-15.24,12.75-37,12.75-37S47.06,103.69,46.13,93.12Z"/><polygon class="cls-15" points="47.68 214.74 64.63 210.88 62.44 217.66 49.86 221.89 47.68 214.74"/><polygon class="cls-4" points="62.98 221.42 45.07 259.33 50.78 261.81 71.48 230.68 62.98 221.42"/><polygon class="cls-16" points="46.56 255.91 41.71 264.5 61.99 274.2 53.34 258.13 46.56 255.91"/><line class="cls-17" x1="41.71" y1="264.5" x2="61.61" y2="274.03"/><path class="cls-18" d="M56.69,264.4s-3.46-.23-5.65,4.39"/><path class="cls-18" d="M55.76,262.35s-3.5-1-4.81,1.19"/><path class="cls-18" d="M54.63,260.12s-3.51-1-4.82,1.2"/><polygon class="cls-19" points="61.68 218.47 75.36 229.36 71.63 234.96 59.19 224.07 61.68 218.47"/><path class="cls-20" d="M48,91.17s1.36,3.23,2.27,3.12S52.48,92,52.48,92l-1-2.17"/><polygon class="cls-14" points="41.52 73.91 45.18 71.49 52.19 89.83 47.73 92.17 41.52 73.91"/><path class="cls-19" d="M49.67,92.45a.93.93,0,0,0,1,.87.88.88,0,1,0,0-1.74A.93.93,0,0,0,49.67,92.45Z"/><path class="cls-20" d="M71.35,86.8s-.47,3.48.37,3.85,3-.83,3-.83L75,87.45"/><polygon class="cls-14" points="74.52 68.64 78.9 68.41 75.64 87.77 70.6 87.53 74.52 68.64"/><path class="cls-19" d="M72.13,88.75A.92.92,0,0,0,72.54,90a.92.92,0,0,0,1.28-.25,1,1,0,0,0-1.69-1Z"/><path class="cls-21" d="M70.56,96.09l-19,2.15s0,11.4,5.4,13S75.08,114.08,70.56,96.09Z"/><path class="cls-4" d="M82.49,121.69l-.23.47s-3.5-3.27-5-1.75c-.81.81-7.58,7.58,1.05,1.4,0,0-8.63,11.31,2,2.1,0,0-6.54,10.61,1,1.86,0,0-1.78,10.15,1.42,1.59,0,0,1.46,2.82,2.63,1.89s2.48-4.3,2.48-4.3A39.73,39.73,0,0,0,82.49,121.69Z"/><polygon class="cls-22" points="61.99 158.59 45.19 152.37 58.58 212.21 64.63 210.88 65.3 209.08 61.99 158.59"/><polygon class="cls-22" points="63.54 158.59 73.81 146.15 65.41 159.52 63.54 158.59"/><path d="M69.49,47.21s-.25,3.14-5,2.12Z"/><path class="cls-23" d="M62.77,48.92s.7-3,3.2-3.53a3.62,3.62,0,0,1,3.72,1.24,3.19,3.19,0,0,1-2.44,2.59A8.34,8.34,0,0,1,62.77,48.92Z"/><path class="cls-24" d="M68.25,46.7a2.06,2.06,0,1,1-2.19-1.93A2.06,2.06,0,0,1,68.25,46.7Z"/><path class="cls-25" d="M68.12,46.61A2,2,0,1,1,66,44.77,2,2,0,0,1,68.12,46.61Z"/><path class="cls-26" d="M67.45,46.75a1.26,1.26,0,1,1-1.34-1.19A1.26,1.26,0,0,1,67.45,46.75Z"/><g class="cls-27"><path d="M66.51,46.3a2,2,0,0,1,1.72.76,1.45,1.45,0,0,0,0-.36,2.06,2.06,0,1,0-3.66,1.42A2.05,2.05,0,0,1,66.51,46.3Z"/></g><path d="M67.05,46.77a.86.86,0,1,1-.91-.81A.86.86,0,0,1,67.05,46.77Z"/><path class="cls-23" d="M68.48,46.68a.71.71,0,0,1-.66.76.73.73,0,0,1-.76-.67.71.71,0,0,1,.67-.75A.7.7,0,0,1,68.48,46.68Z"/><path class="cls-23" d="M67.19,47.73a.25.25,0,1,1-.27-.24A.25.25,0,0,1,67.19,47.73Z"/><path d="M64.15,45.78a5.5,5.5,0,0,0-1.38,3.14s.7-3,3.2-3.53a3.62,3.62,0,0,1,3.72,1.24s1-.4.85-.69C69.21,43.89,65.72,43.9,64.15,45.78Z"/><g class="cls-28"><path d="M65.78,46a3.61,3.61,0,0,1,3.71,1.25,1.87,1.87,0,0,1,0,.2,3.45,3.45,0,0,0,.24-.78A3.62,3.62,0,0,0,66,45.39c-2.21.45-3,2.86-3.17,3.41A4.37,4.37,0,0,1,65.78,46Z"/></g><path d="M48.57,48.48s.64,3.09,5.24,1.48Z"/><path class="cls-23" d="M55.46,49.34s-1.08-2.92-3.63-3.11a3.64,3.64,0,0,0-3.53,1.7,3.21,3.21,0,0,0,2.75,2.27A8.46,8.46,0,0,0,55.46,49.34Z"/><path class="cls-24" d="M49.74,47.82a2.06,2.06,0,1,0,1.93-2.19A2.06,2.06,0,0,0,49.74,47.82Z"/><ellipse class="cls-25" cx="51.81" cy="47.6" rx="1.96" ry="1.97" transform="translate(-2.87 3.33) rotate(-3.58)"/><path class="cls-26" d="M50.54,47.77a1.26,1.26,0,1,0,1.18-1.34A1.25,1.25,0,0,0,50.54,47.77Z"/><path d="M50.94,47.74a.86.86,0,1,0,.81-.91A.86.86,0,0,0,50.94,47.74Z"/><g class="cls-28"><path d="M52.1,46.78a3.64,3.64,0,0,0-3.53,1.7l.07.19a3.55,3.55,0,0,1-.34-.74,3.64,3.64,0,0,1,3.53-1.7c2.25.17,3.35,2.46,3.58,3A4.35,4.35,0,0,0,52.1,46.78Z"/></g><g class="cls-27"><path d="M52.12,47.16a2.07,2.07,0,0,1,1.72.76,1.4,1.4,0,0,0,0-.36A2.06,2.06,0,1,0,50.2,49,2.07,2.07,0,0,1,52.12,47.16Z"/></g><path class="cls-23" d="M53.9,47.6a.71.71,0,0,1-.67.75.71.71,0,0,1-.09-1.41A.71.71,0,0,1,53.9,47.6Z"/><path class="cls-23" d="M52.61,48.65a.26.26,0,1,1-.27-.24A.26.26,0,0,1,52.61,48.65Z"/><path d="M53.7,46.4a5.48,5.48,0,0,1,1.76,2.94s-1.08-2.92-3.63-3.11a3.64,3.64,0,0,0-3.53,1.7s-1.07-.26-.92-.57C48.43,45.16,51.9,44.73,53.7,46.4Z"/><path class="cls-29" d="M65,56.24s-.1.3-.86.3-7.79.59-7.79.59-.39,0-.4-.26l-.13.22s2.43,2.76,3.79,2.86a5.58,5.58,0,0,0,3.2-.53,18.91,18.91,0,0,0,2.36-3Z"/><path class="cls-30" d="M63.83,56.68l-7.17.56-.48,0s2.19,2,3.44,2.08a6.14,6.14,0,0,0,3-.45,15.91,15.91,0,0,0,2.21-2.31Z"/><path class="cls-31" d="M56.9,57.2s1,1.47,2.07,1.41a21,21,0,0,0,4.21-.51c.61-.25,1.05-1.42,1.05-1.42Z"/><path class="cls-32" d="M57.7,57.87c.38,0,5.86-.37,6.07-.5a2.51,2.51,0,0,0,.46-.69l-7.33.52S57.25,57.79,57.7,57.87Z"/><path class="cls-33" d="M64.79,56.63h0l0,0C64.84,56.65,64.88,56.63,64.79,56.63Z"/><path class="cls-33" d="M56.66,57.24s2,0,3.84-.11c1.54-.12,3-.41,3.33-.43l.86-.08c-.54,0-1.49-.44-2.09-.51a13.83,13.83,0,0,0-2.18.32,8.7,8.7,0,0,0-2.43.16l-1.71.69Z"/><path class="cls-33" d="M56.2,57.31h0Z"/><path class="cls-34" d="M57.61,56.84a2.9,2.9,0,0,1,1.73-.32C60.3,56.66,57.61,56.84,57.61,56.84Z"/><path class="cls-35" d="M59.18,59.27,59,59.21Z"/><path class="cls-36" d="M59.18,59.27a2.65,2.65,0,0,0,.44.09,6.14,6.14,0,0,0,3-.45,1.36,1.36,0,0,0,.29-.21l0-.05c.1-.09.22-.19.34-.31h0c-1.11,0-3.36.28-4.48.38a1.59,1.59,0,0,0-.52.13l.48.25.3.12Z"/><path class="cls-36" d="M59.62,59.36a2.65,2.65,0,0,1-.44-.09A1.91,1.91,0,0,0,59.62,59.36Z"/><path class="cls-36" d="M58.73,59.09l.3.12Z"/><path class="cls-35" d="M59.62,59.36a2,2,0,0,1-.51-.11A2,2,0,0,0,59.62,59.36Z"/><path class="cls-32" d="M59.62,59.36a6.14,6.14,0,0,0,3-.45l0,0-3.49.36h0A2,2,0,0,0,59.62,59.36Z"/><path class="cls-33" d="M62.57,58.91a6.14,6.14,0,0,1-3,.45c-1.25-.06-3.44-2.08-3.44-2.08s1.59,3.5,4.54,3.24,3.52-2.63,4.06-3.91h0A15.07,15.07,0,0,1,62.57,58.91Z"/><path class="cls-34" d="M60.52,60.18a5,5,0,0,1-1.83-.43C58.17,59.4,59.49,60.67,60.52,60.18Z"/></g></g></svg>